<?xml version="1.0" standalone="no"?>
<!DOCTYPE svg PUBLIC "-//W3C//DTD SVG 20010904//EN"
 "http://www.w3.org/TR/2001/REC-SVG-20010904/DTD/svg10.dtd">
<svg version="1.0" xmlns="http://www.w3.org/2000/svg"
 width="4676.000000pt" height="4676.000000pt" viewBox="0 0 4676.000000 4676.000000"
 preserveAspectRatio="xMidYMid meet">

<g transform="translate(0.000000,4676.000000) scale(0.100000,-0.100000)"
fill="#000000" stroke="none">
<path d="M22945 36913 c-361 -21 -609 -46 -900 -89 -2715 -403 -5102 -2035
-6477 -4429 -641 -1115 -1036 -2372 -1152 -3660 -41 -447 -45 -978 -11 -1300
206 -1956 1458 -5008 3743 -9125 1331 -2398 3035 -5180 4786 -7808 l441 -663
23 28 c26 32 632 937 828 1238 290 443 356 545 589 905 1410 2186 2746 4404
3827 6355 2017 3638 3238 6483 3613 8412 97 501 131 870 121 1313 -47 2155
-818 4147 -2232 5768 -158 181 -521 551 -709 722 -1436 1307 -3249 2113 -5175
2299 -330 32 -538 41 -913 39 -194 -1 -374 -3 -402 -5z m935 -4387 c1241 -157
2311 -812 3010 -1842 380 -560 610 -1185 696 -1894 23 -183 26 -701 6 -890
-91 -849 -408 -1611 -948 -2274 -126 -154 -394 -424 -549 -552 -654 -541
-1393 -858 -2240 -961 -212 -25 -747 -25 -955 0 -1000 124 -1860 546 -2550
1253 -314 321 -547 648 -750 1049 -221 435 -352 862 -421 1365 -27 198 -37
672 -20 883 72 856 382 1634 919 2309 137 172 478 514 652 652 646 515 1409
826 2235 911 186 19 736 13 915 -9z"/>
</g>
</svg>
